#!OML:ASF F:\VICON\USERDATA\INSTALL\rory3\rory3.ASF
:FULLY-SPECIFIED
:DEGREES
3116
root 13.252 18.0183 -9.32095 721.904 62.0374 2.2435
lowerback 11.5023 2.09382 3.28235
upperback 1.0557 3.31916 1.49749
thorax -5.24405 1.59247 -0.80263
lowerneck -9.34678 -3.76979 -12.6057
upperneck 44.4093 -1.38303 3.24078
head 18.6406 -1.59035 3.82997
rclavicle -3.3197e-014 -7.95139e-015
rhumerus -33.7939 -4.61337 -79.6104
rradius 36.8132
rwrist 1.53939
rhand -15.7547 8.3205
rfingers 7.12502
rthumb 10.4368 -21.4004
lclavicle -3.3197e-014 -7.95139e-015
lhumerus -45.6088 17.888 68.8835
lradius 46.7765
lwrist 3.995
lhand -14.9363 29.6737
lfingers 7.12502
lthumb 11.2262 59.3533
rfemur -5.85801 -1.13825 19.0293
rtibia 26.2404
rfoot -16.6851 -3.1047
rtoes -1.9122
lfemur -17.6694 -0.0659084 -19.504
ltibia 34.3925
lfoot -10.1758 3.92128
ltoes -7.85539
3117
root 13.2416 18.0161 -9.3191 721.346 62.9615 1.72352
lowerback 11.5427 2.03784 3.40725
upperback 1.03351 3.26978 1.57937
thorax -5.28976 1.56581 -0.781724
lowerneck -9.24482 -3.75931 -12.4948
upperneck 44.3399 -1.40951 3.27107
head 18.5655 -1.56795 3.81848
rclavicle -4.47266e-014 -2.06736e-014
rhumerus -33.8863 -4.98586 -79.6993
rradius 36.8405
rwrist 1.61403
rhand -15.9174 8.45102
rfingers 7.12502
rthumb 10.2798 -21.2778
lclavicle -4.47266e-014 -2.06736e-014
lhumerus -46.0567 18.2285 68.5214
lradius 46.3806
lwrist 3.6367
lhand -16.8868 30.4397
lfingers 7.12502
lthumb 9.3446 60.2126
rfemur -5.55419 -1.41408 19.4008
rtibia 26.0289
rfoot -16.5758 -3.71665
rtoes -2.06034
lfemur -17.455 0.69017 -19.3105
ltibia 34.9416
lfoot -10.1808 4.82525
ltoes -6.20171
3118
root 13.2373 18.0191 -9.32078 721.215 63.9014 1.56892
lowerback 11.417 1.98368 3.44329
upperback 1.00649 3.19998 1.6149
thorax -5.25073 1.53186 -0.749368
lowerneck -8.98692 -3.65525 -12.5939
upperneck 44.0799 -1.33289 3.44767
head 18.3208 -1.51389 3.92205
rclavicle 3.83654e-014 -2.38542e-015
rhumerus -33.9099 -5.14253 -79.767
rradius 36.8221
rwrist 1.46812
rhand -16.2916 8.47535
rfingers 7.12502
rthumb 9.91883 -21.271
lclavicle 3.83654e-014 -2.38542e-015
lhumerus -46.4559 18.5981 68.1837
lradius 45.9129
lwrist 3.00974
lhand -21.033 31.2291
lfingers 7.12502
lthumb 5.34246 61.1418
rfemur -5.35934 -1.74283 19.54
rtibia 25.8413
rfoot -16.5097 -4.26678
rtoes -2.05821
lfemur -17.2901 1.34217 -19.3143
ltibia 35.3717
lfoot -10.1801 5.53211
ltoes -4.20284
3119
root 13.2388 18.0202 -9.31799 721.358 64.8582 1.689
lowerback 11.219 1.97677 3.34893
upperback 0.955921 3.17054 1.61383
thorax -5.19949 1.51985 -0.686163
lowerneck -9.37139 -3.88533 -12.7139
upperneck 44.4575 -1.50845 3.38709
head 18.7021 -1.61848 3.91024
rclavicle -4.96962e-014 -1.03368e-014
rhumerus -33.9375 -5.30246 -79.8035
rradius 36.739
rwrist 1.1387
rhand -16.2811 8.37463
rfingers 7.12502
rthumb 9.92901 -21.3712
lclavicle -4.96962e-014 -1.03368e-014
lhumerus -46.7995 18.8037 67.9646
lradius 45.5208
lwrist 2.91958
lhand -20.2729 30.7974
lfingers 7.12502
lthumb 6.07632 60.6903
rfemur -5.21733 -1.99118 19.5585
rtibia 25.7911
rfoot -16.5624 -4.88141
rtoes -1.2461
lfemur -17.0626 2.02495 -19.448
ltibia 35.6137
lfoot -10.0759 6.21216
ltoes -3.67797
3120
root 13.2431 18.018 -9.32236 721.85 65.7865 2.12073
lowerback 11.0436 2.00171 3.33092
upperback 0.833411 3.18369 1.43028
thorax -5.22003 1.52193 -0.864848
lowerneck -9.23724 -3.97044 -12.6652
upperneck 44.4281 -1.75289 3.62359
head 18.6747 -1.66808 3.97589
rclavicle 1.22253e-014 5.56597e-015
rhumerus -34.0811 -5.85838 -79.8914
rradius 36.6285
rwrist 1.00545
rhand -15.9664 8.43475
rfingers 7.12502
rthumb 10.2326 -21.2964
lclavicle 1.22253e-014 5.56597e-015
lhumerus -47.0736 18.7667 67.6038
lradius 45.0811
lwrist 3.07589
lhand -20.0097 30.9649
lfingers 7.12502
lthumb 6.33043 60.8503
rfemur -5.19284 -2.46703 19.3882
rtibia 25.7846
rfoot -16.6062 -5.2873
rtoes 0.139505
lfemur -16.8609 2.58061 -19.7456
ltibia 35.7084
lfoot -9.83606 7.0311
ltoes -3.29421
3121
root 13.246 18.0138 -9.32687 722.2 66.6127 2.39396
lowerback 10.8964 2.08736 3.50575
upperback 0.714159 3.29356 1.10578
thorax -5.22976 1.5654 -1.31339
lowerneck -8.79374 -3.96734 -12.2591
upperneck 44.1085 -2.05944 3.92396
head 18.3647 -1.66573 3.97897
rclavicle 1.63997e-014 -6.36111e-015
rhumerus -34.3276 -6.67435 -80.2301
rradius 36.5991
rwrist 0.970705
rhand -16.3096 8.35888
rfingers 7.12502
rthumb 9.90143 -21.3883
lclavicle 1.63997e-014 -6.36111e-015
lhumerus -47.1563 18.39 67.1861
lradius 44.6004
lwrist 3.06292
lhand -19.8734 31.0705
lfingers 7.12502
lthumb 6.462 60.9519
rfemur -5.21803 -2.85525 19.305
rtibia 25.8237
rfoot -16.6272 -5.66106
rtoes 0.917057
lfemur -16.639 3.32903 -19.9568
ltibia 35.6866
lfoot -9.23143 7.63539
ltoes -3.56142
3122
root 13.2515 18.0138 -9.32875 722.01 67.413 2.16061
lowerback 10.7971 2.20067 3.39232
upperback 0.625143 3.43502 1.2235
thorax -5.27557 1.63714 -1.14572
lowerneck -8.53223 -4.01264 -12.0719
upperneck 43.979 -2.14178 3.80089
head 18.2143 -1.66666 3.86669
rclavicle -5.96354e-016 -8.74653e-015
rhumerus -34.5255 -7.11382 -80.0948
rradius 36.5848
rwrist 0.839185
rhand -16.2743 8.30986
rfingers 7.12502
rthumb 9.9355 -21.4357
lclavicle -5.96354e-016 -8.74653e-015
lhumerus -47.41 18.5216 67.1712
lradius 44.0899
lwrist 2.74571
lhand -19.9301 31.2123
lfingers 7.12502
lthumb 6.40731 61.0954
rfemur -5.15494 -3.01808 19.4738
rtibia 25.8875
rfoot -16.679 -6.21056
rtoes 0.817854
lfemur -16.3041 4.01496 -19.9272
ltibia 35.5779
lfoot -8.40773 8.07516
ltoes -3.92216
3123
root 13.258 18.0093 -9.33367 721.718 68.2197 1.90083
lowerback 10.8149 2.21596 3.48399
upperback 0.546127 3.4698 1.2261
thorax -5.36208 1.6493 -1.20221
lowerneck -8.54705 -4.06218 -11.9839
upperneck 44.1061 -2.21568 3.8437
head 18.3048 -1.66913 3.86966
rclavicle 1.40143e-014 -2.8625e-014
rhumerus -34.6294 -7.789 -80.0352
rradius 36.4053
rwrist 0.862142
rhand -15.5353 8.43203
rfingers 7.12502
rthumb 10.6484 -21.2782
lclavicle 1.40143e-014 -2.8625e-014
lhumerus -47.6741 18.5608 66.8898
lradius 43.6143
lwrist 2.45692
lhand -19.7199 31.6262
lfingers 7.12502
lthumb 6.61018 61.503
rfemur -5.0093 -3.19496 19.6308
rtibia 25.922
rfoot -16.7354 -6.81154
rtoes -0.149026
lfemur -15.8609 4.52082 -19.8644
ltibia 35.3775
lfoot -7.83247 8.41825
ltoes -4.65843
3124
root 13.2651 18.0003 -9.34082 721.586 68.9664 1.69604
lowerback 10.6533 2.2553 3.56627
upperback 0.501114 3.52536 1.22362
thorax -5.3116 1.67516 -1.25218
lowerneck -8.63398 -4.1571 -12.0883
upperneck 44.1758 -2.38246 4.05328
head 18.4015 -1.72192 3.9693
rclavicle -8.74653e-014 3.97569e-015
rhumerus -34.6367 -8.38279 -79.9879
rradius 36.1621
rwrist 1.14568
rhand -15.4754 8.50753
rfingers 7.12502
rthumb 10.7062 -21.1997
lclavicle -8.74653e-014 3.97569e-015
lhumerus -47.8146 18.6228 66.6289
lradius 43.0798
lwrist 2.20481
lhand -19.4758 31.4523
lfingers 7.12502
lthumb 6.84581 61.3216
rfemur -4.99809 -3.39034 19.7178
rtibia 25.9598
rfoot -16.7876 -7.20428
rtoes -0.444867
lfemur -15.4833 5.03898 -19.8147
ltibia 35.034
lfoot -7.83847 8.57815
ltoes -6.28689
3125
root 13.2725 17.9981 -9.35613 721.731 69.6595 1.6053
lowerback 10.333 2.28153 3.59045
upperback 0.411705 3.55114 1.25034
thorax -5.22531 1.68831 -1.22828
lowerneck -8.62931 -4.1849 -12.1437
upperneck 44.1234 -2.37532 4.01022
head 18.3698 -1.72556 3.95867
rclavicle -4.05521e-014 1.27222e-014
rhumerus -34.6332 -8.37565 -80.0909
rradius 35.9642
rwrist 1.44496
rhand -16.0117 8.35529
rfingers 7.12502
rthumb 10.1889 -21.378
lclavicle -4.05521e-014 1.27222e-014
lhumerus -48.1424 18.9135 66.4484
lradius 42.6992
lwrist 1.95442
lhand -19.322 31.1382
lfingers 7.12502
lthumb 6.99436 61.0027
rfemur -5.22788 -3.56302 19.7349
rtibia 26.0889
rfoot -16.9212 -7.53529
rtoes 0.0988615
lfemur -15.2706 5.38012 -19.8536
ltibia 34.4898
lfoot -8.08351 8.52007
ltoes -6.38332
3126
root 13.2776 17.9976 -9.37493 722.105 70.4726 1.73749
lowerback 10.0317 2.24237 3.59106
upperback 0.315691 3.48513 1.2266
thorax -5.15855 1.65554 -1.23213
lowerneck -8.60227 -4.17811 -12.0947
upperneck 44.0159 -2.32299 3.8924
head 18.2851 -1.70273 3.8969
rclavicle 1.07841e-014 -3.89618e-014
rhumerus -34.5515 -8.22764 -80.2675
rradius 35.7102
rwrist 1.49678
rhand -15.6493 8.61374
rfingers 7.12502
rthumb 10.5384 -21.1021
lclavicle 1.07841e-014 -3.89618e-014
lhumerus -48.5129 19.202 66.3244
lradius 42.4507
lwrist 1.73831
lhand -18.8732 31.1526
lfingers 7.12502
lthumb 7.42752 61.0022
rfemur -5.52821 -3.7736 19.7112
rtibia 26.301
rfoot -16.9992 -8.12492
rtoes -0.0568882
lfemur -15.1067 5.4883 -20.0131
ltibia 33.7395
lfoot -8.10562 8.15806
ltoes -7.00769
3127
root 13.2837 17.9886 -9.38857 722.526 71.3025 2.03723
lowerback 9.82368 2.26676 3.5395
upperback 0.259189 3.49653 1.12664
thorax -5.09721 1.66141 -1.30032
lowerneck -8.5354 -4.29559 -11.7587
upperneck 43.9302 -2.5373 3.75165
head 18.2233 -1.74268 3.72868
rclavicle -2.27608e-014 1.35174e-014
rhumerus -34.4693 -8.64463 -80.2786
rradius 35.324
rwrist 1.8131
rhand -16.0804 8.69808
rfingers 7.12502
rthumb 10.1226 -21.0384
lclavicle -2.27608e-014 1.35174e-014
lhumerus -48.7263 19.3657 66.2125
lradius 42.1916
lwrist 1.38854
lhand -18.6794 31.2715
lfingers 7.12502
lthumb 7.61464 61.1144
rfemur -5.73757 -4.03833 19.6494
rtibia 26.5848
rfoot -17.0276 -8.75985
rtoes -0.254701
lfemur -14.7801 5.25902 -20.2097
ltibia 32.7714
lfoot -8.17517 7.79874
ltoes -9.80655
3128
root 13.2911 17.9806 -9.39986 723.224 72.0491 2.61581
lowerback 9.63823 2.31898 3.3268
upperback 0.171392 3.5292 1.03021
thorax -5.09005 1.68005 -1.27963
lowerneck -8.6524 -4.23521 -11.8894
upperneck 44.0484 -2.46973 4.04012
head 18.3291 -1.69337 3.91429
rclavicle -3.10601e-014 1.59028e-015
rhumerus -34.4829 -9.05232 -80.259
rradius 34.9988
rwrist 1.99074
rhand -16.0365 8.87293
rfingers 7.12502
rthumb 10.1649 -20.8615
lclavicle -3.10601e-014 1.59028e-015
lhumerus -49.0223 19.6244 66.0729
lradius 41.9261
lwrist 1.29594
lhand -19.1138 31.1603
lfingers 7.12502
lthumb 7.19527 61.0179
rfemur -5.9899 -4.2098 19.5076
rtibia 26.9497
rfoot -17.1527 -9.35705
rtoes 0.0837796
lfemur -14.4184 4.77394 -20.4335
ltibia 31.6313
lfoot -8.49762 7.54247
ltoes -9.58415
